<svg version="1.1" width="221.438" height="239.978" xmlns="http://www.w3.org/2000/svg" xmlns:xlink="http://www.w3.org/1999/xlink" id="svg3861" overflow="hidden"><defs id="defs3865"></defs><path d=" M 41.771 239.095 C 40.5821 238.615 40.1043 234.297 40.1043 224.03 L 40.1043 209.638 L 32.4376 203.354 C -6.17359 171.707 -10.8826 122.496 21.3635 87.6237 C 34.8279 73.063 56.5628 60.4481 74.771 56.6262 C 77.3376 56.0874 80.9432 54.5833 82.7832 53.2836 C 87.4378 49.996 96.6179 47.7326 101.054 48.7788 C 103.098 49.2608 106.871 50.7158 109.438 52.0122 C 112.004 53.3085 118.241 55.0621 123.297 55.909 C 134.937 57.8587 146.641 61.8142 156.42 67.1037 C 163.736 71.0611 164.229 71.1486 167.753 69.1172 C 174.033 65.4976 184.396 62.7501 193.256 62.3558 C 205.615 61.8058 205.898 62.9758 197.586 80.2092 C 193.838 87.9801 190.782 94.8572 190.796 95.4916 C 190.811 96.1259 192.888 100.724 195.414 105.709 C 197.941 110.695 200.396 116.845 200.871 119.376 C 201.729 123.947 201.783 123.978 208.919 123.978 C 220.898 123.978 221.438 125.129 221.438 150.645 C 221.438 177.357 221.468 177.31 205.104 177.314 L 194.104 177.317 L 190.342 183.272 C 186.586 189.217 167.572 207.979 165.303 207.979 C 164.644 207.979 164.104 214.459 164.104 222.379 C 164.104 231.801 163.551 237.332 162.504 238.379 C 161.395 239.487 154.466 239.979 139.933 239.979 C 116.441 239.979 114.771 239.397 114.771 231.217 L 114.771 226.645 L 101.438 226.645 L 88.1043 226.645 L 88.1043 232.503 C 88.1043 236.614 87.4756 238.601 85.9953 239.169 C 83.4874 240.132 44.1763 240.066 41.771 239.096 Z M 80.1043 224.724 C 80.1043 221.467 80.7612 218.396 81.5641 217.9 C 82.3671 217.404 91.6101 216.998 102.104 216.998 C 112.599 216.998 121.842 217.404 122.645 217.9 C 123.447 218.396 124.104 221.467 124.104 224.724 L 124.104 230.645 L 139.438 230.645 L 154.771 230.645 L 154.771 217.965 C 154.771 207.492 155.177 204.959 157.104 203.411 C 158.388 202.38 162.738 198.909 166.771 195.698 C 170.804 192.487 176.937 185.987 180.399 181.252 C 190.691 167.181 189.387 167.978 202.104 167.978 L 213.438 167.978 L 213.438 150.645 L 213.438 133.312 L 205.104 133.291 C 200.521 133.281 196.083 132.83 195.242 132.291 C 194.402 131.752 193.021 128.612 192.174 125.312 C 189.878 116.361 187.072 109.613 183.395 104.202 C 181.585 101.538 180.114 98.4485 180.125 97.3354 C 180.136 96.2223 182.53 89.9551 185.444 83.4084 C 188.358 76.8617 190.583 71.3454 190.387 71.1501 C 189.307 70.0693 177.151 74.0218 170.775 77.527 L 163.375 81.595 L 155.528 76.8679 C 147.816 72.2223 122.091 62.8802 120.738 64.2336 C 120.358 64.6135 120.564 66.3226 121.196 68.0315 C 121.96 70.0943 124.098 71.6302 127.558 72.6012 L 132.771 74.0637 L 132.771 82.0209 L 132.771 89.9782 L 102.104 89.9782 L 71.4376 89.9782 L 71.0407 81.6449 C 70.7943 76.4726 71.1737 73.3115 72.0407 73.3115 C 72.809 73.3115 73.4377 71.8115 73.4377 69.9782 C 73.4377 65.7172 71.5203 65.7389 61.0641 70.1183 C 33.66 81.5961 13.7078 104.602 9.3707 129.723 C 5.08207 154.563 17.7061 181.891 41.5578 199.4 L 48.1043 204.205 L 48.1043 217.425 L 48.1043 230.645 L 64.1043 230.645 L 80.1043 230.645 Z M 99.2315 171.782 C 93.3141 170.453 82.1755 161.737 80.7812 157.344 C 80.2538 155.682 78.4994 154.661 75.7064 154.391 C 72.1521 154.047 71.4376 153.42 71.4376 150.645 C 71.4376 148.203 72.2402 147.198 74.4376 146.885 C 76.3214 146.618 77.4376 145.536 77.4376 143.978 C 77.4376 142.42 76.3214 141.338 74.4376 141.071 C 72.2402 140.759 71.4376 139.753 71.4376 137.312 C 71.4376 134.536 72.1521 133.909 75.7064 133.565 C 78.4994 133.295 80.2538 132.274 80.7812 130.613 C 82.2077 126.118 93.1026 117.712 99.6327 116.068 C 112.943 112.717 129.475 120.527 122.074 126.67 C 120.419 128.044 119.071 127.917 114.786 125.985 C 108.511 123.155 100.018 123.86 94.9705 127.628 C 88.9554 132.119 89.8976 133.163 100.347 133.585 C 109.761 133.964 110.104 134.095 110.104 137.312 C 110.104 140.584 109.89 140.652 98.4376 141.03 C 87.951 141.376 86.771 141.675 86.771 143.978 C 86.771 146.282 87.951 146.58 98.4376 146.926 C 109.89 147.304 110.104 147.373 110.104 150.645 C 110.104 153.861 109.761 153.992 100.347 154.372 C 89.8976 154.793 88.9554 155.837 94.9705 160.328 C 99.8154 163.945 108.247 164.768 113.519 162.137 C 119.393 159.207 122.415 159.424 123.504 162.855 C 124.649 166.461 120.475 169.898 112.514 171.903 C 106.26 173.479 106.809 173.484 99.2315 171.782 Z M 15.5205 141.446 C 14.445 139.705 16.6908 126.196 19.23 119.131 C 21.6314 112.449 26.5064 104.563 32.393 97.8377 C 37.8725 91.5776 51.976 81.0749 53.5755 82.0634 C 56.0951 83.6206 54.5484 86.1158 48.8205 89.7345 C 34.2855 98.9171 22.1415 117.561 20.3706 133.411 C 19.5012 141.192 17.4567 144.579 15.5205 141.446 Z M 108.752 83.2062 C 112.997 78.6256 114.019 73.2721 111.697 67.783 C 108.981 61.3626 105.067 58.4259 98.1944 57.6512 C 92.6751 57.0291 91.7866 57.3626 87.4736 61.6755 C 83.4785 65.6707 82.771 67.2856 82.771 72.4092 C 82.771 76.9523 83.6226 79.4524 86.2229 82.5426 C 89.3662 86.2783 90.3847 86.6449 97.6198 86.6449 C 104.447 86.6449 106.013 86.161 108.752 83.2062 Z M 129.211 82.1229 C 129.924 75.8762 122.419 73.2189 120.921 79.1877 C 120.478 80.9529 119.733 83.3939 119.266 84.6121 C 118.549 86.4809 119.225 86.7607 123.593 86.4026 C 128.193 86.0256 128.82 85.5481 129.211 82.1229 Z M 114.076 44.7388 C 93.3224 32.2964 102.158 -0.0814491 126.286 0.000153967 C 141.443 0.0514195 152.98 13.7868 150.22 28.4959 C 147.229 44.4401 127.996 53.0836 114.076 44.7388 Z M 132.962 37.7984 C 144.255 32.4395 144.255 15.517 132.962 10.158 C 127.01 7.33392 124.377 7.41574 119.177 10.5862 C 112.753 14.5027 110.296 19.0533 111.153 25.4432 C 111.979 31.5999 114.98 35.552 120.771 38.1082 C 126.03 40.4295 127.495 40.3922 132.962 37.7984 Z" id="path3859" stroke-width="1.33333" fill="#FFFFFF"/></svg>