<svg width="612.279" height="367.395" xmlns="http://www.w3.org/2000/svg" xmlns:xlink="http://www.w3.org/1999/xlink" id="svg5379" overflow="hidden"><defs id="defs5383"></defs><path d="" id="path4212" stroke="#FFFFFF" stroke-width="1.2" stroke-linecap="round" stroke-linejoin="round" fill="#00FF66"/><path d="M146.89 275.056C155.585 310.79 136.809 347.505 102.748 361.374 68.6863 375.242 29.6045 362.086 10.8646 330.442-7.8752 298.797-0.625098 258.203 27.9099 235.002" id="path3946" stroke="#FFFFFF" stroke-linecap="round" stroke-linejoin="round" fill="none"/><path d="M538.966 233.39C562.051 255.283 568.622 289.45 555.304 318.343 541.985 347.236 511.738 364.433 480.098 361.1 448.458 357.767 422.458 334.646 415.452 303.612" id="path3948" stroke="#FFFFFF" stroke-linecap="round" stroke-linejoin="round" fill="none"/><path d="M11.4956 233.807C35.6419 206.697 73.4549 196.8 107.563 208.664" id="path3950" stroke="#FFFFFF" stroke-linecap="round" stroke-linejoin="round" fill="none"/><path d="M115.276 224.205C134.4 234.726 148.31 252.7 153.697 273.852" id="path3952" stroke="#FFFFFF" stroke-linecap="round" stroke-linejoin="round" fill="none"/><path d="M11.683 233.032C22.4802 235.93 37.6598 235.323 53.1315 234.482L67.9049 261.882 77.6276 263.65 98.5883 219.203 104.902 214.152" id="path3954" stroke="#FFFFFF" fill="none"/><path d="M154.147 273.878C142.428 274.177 139.957 272.531 137.022 270.981 130.604 259.405 118.735 250.847 104.038 247.078L114.877 223.875" id="path3956" stroke="#FFFFFF" fill="none"/><path d="M103.937 247.522C124.917 261.104 133.756 287.361 125.262 310.865 116.767 334.369 93.1827 348.908 68.3675 345.939 43.5524 342.97 24.0645 323.277 21.355 298.432 18.6455 273.587 33.4305 250.157 57.0222 241.908" id="path3958" stroke="#FFFFFF" stroke-linecap="round" stroke-linejoin="round" fill="none"/><path d="M186.119 312.089C184.085 313.579 167.565 292.494 168.619 291.017L166.298 276.374C145.694 243.433 129.06 193.741 97.9053 180.839 94.2646 183.22 90.1562 184.479 84.1553 181.196 90.9688 150.217 106.032 125.567 126.655 106.017L125.405 102.624 156.298 66.3744 207.548 87.9815C169.4 161.428 169.859 157.061 198.084 256.553 235.385 249.77 258.733 246.737 286.08 242.55 288.85 238.324 292.05 232.962 298.811 228.735 296.597 228.053 292.743 228.646 293.262 225.839 295.835 221.03 299.76 217.575 303.262 213.696 291.699 195.683 288.572 183.697 283.699 170.463 279.82 170.219 275.913 169.678 271.703 165.792 271.089 121.687 298.734 112.667 303.144 110.612 343.482 104.607 395.587 103.347 417.165 89.7775 446.494 83.238 466.376 80.7623 490.527 77.782 500.663 77.1818 508.331 90.7456 510.352 96.7223L569.446 95.9647C574.58 95.965 576.651 98.1912 576.517 100.132 575.995 104.06 569.788 104.407 567.047 104.551" id="path3960" stroke="#FFFFFF" fill="none"/><path d="M186.345 312.516 249.48 311.759 249.732 297.111 328.777 287.767 348.222 273.12 350.748 263.271C365.311 259.399 394.143 251.333 395.151 249.601L399.993 231.451C416.781 188.595 509.706 162.756 526.514 138.265L547.964 108.419C548.618 107.473 548.177 106.307 546.449 104.884L566.92 104.425" id="path3962" stroke="#FFFFFF" fill="none"/><path d="M169.93 293.323C230.944 286.024 291.726 277.874 350.748 263.271" id="path3964" stroke="#FFFFFF" fill="none"/><path d="M189.881 80.1811C194.116 85.8599 192.321 87.3937 191.396 89.525 169.974 110.252 135.713 133.896 135.97 164.295 153.399 192.022 168.158 217.28 184.578 248.371 187.637 255.153 175.546 278.519 170.183 293.576" id="path3966" stroke="#FFFFFF" fill="none"/><path d="M144.171 177.535C190.567 190.283 171.559 193.53 191.649 269.585 237.36 266.143 282.506 260.435 327.767 255.19 329.652 251.856 331.593 248.578 335.343 247.109 352.698 247.641 376.163 242.065 398.225 237.891" id="path3968" stroke="#FFFFFF" fill="none"/><path d="M307.311 252.917C410.218 124.365 489.295 119.108 546.298 104.589" id="path3970" stroke="#FFFFFF" fill="none"/><path d="M283.441 170.66C362.805 177.727 399.711 140.141 454.512 121.374" id="path3972" stroke="#FFFFFF" fill="none"/><path d="M442.04 132.078C442.672 131.951 459.087 118.567 459.087 118.567L508.331 100.637 570.762 99.7877C575.312 99.2134 571.739 97.2153 567.714 97.2203" id="path3974" stroke="#FFFFFF" fill="none"/><path d="M446.081 135.866 460.223 124.502 509.215 106.445 567.678 104.551" id="path3976" stroke="#FFFFFF" fill="none"/><path d="M442.419 131.951 446.207 135.866" id="path3978" stroke="#FFFFFF" fill="none"/><path d="M461.359 178.418 521.463 174.125C550.635 211.54 569.964 271.32 611.62 270.09 608.733 260.113 596.808 262.014 586.618 254.685 574.678 221.652 557.708 189.991 538.383 158.973" id="path3980" stroke="#FFFFFF" fill="none"/><path d="M332.565 223.875C362.301 217.375 410.697 194.214 421.711 204.43" id="path3982" stroke="#FFFFFF" fill="none"/><path d="M62.3491 297.427C62.6136 297.493 62.6488 300.874 64.0475 301.447 66.3138 302.377 69.5077 303.728 71.8108 304.707 73.5094 305.43 75.481 302.983 75.481 302.983L113.741 226.527 115.095 219.954C112.048 219.835 108.026 217.745 104.48 214.295L98.7146 220.34Z" id="path3984" stroke="#FFFFFF" fill="none"/><path d="M66.8948 289.03C71.4759 292.729 75.8638 295.076 79.7742 294.081" id="path3986" stroke="#FFFFFF" fill="none"/><path d="M105.405 214.232 116.298 193.874" id="path3988" stroke="#FFFFFF" fill="none"/><path d="M115.227 219.946 124.438 202.612" id="path3990" stroke="#FFFFFF" fill="none"/><path d="M52.9052 234.589C69.8319 226.885 81.071 225.935 94.6909 226.196" id="path3992" stroke="#FFFFFF" fill="none"/><path d="M98.9766 181.017C104.722 168.593 123.027 161.523 126.655 161.732 130.514 162.214 133.947 169.101 133.281 170.651 128.778 179.411 120.32 185.578 110.762 188.874" id="path3994" stroke="#FFFFFF" fill="none"/><path d="M89.1552 163.16C102.707 153.639 125.401 124.604 140.584 102.267 132.534 106.354 124.173 109.352 117.012 116.553" id="path3996" stroke="#FFFFFF" fill="none"/><path d="M127.012 106.017C143.559 93.1774 161.189 83.9479 179.155 75.8387" id="path3998" stroke="#FFFFFF" fill="none"/><path d="M178.39 70.9634 210.21 85.3581C219.734 64.5673 238.674 41.0917 208.064 17.4254L187.229 0.631565C169.978 13.3852 163.131 23.5885 154.778 44.6995 151.818 52.0724 171.151 51.2655 179.022 51.7705 188.316 51.5739 180.841 64.1581 178.39 70.9634Z" id="path4000" stroke="#FFFFFF" fill="none"/><path d="M226.542 38.4317C227.216 41.4746 225.52 44.5429 222.75 45.2921 219.979 46.0413 217.179 44.1888 216.488 41.1502 215.798 38.1116 217.477 35.0326 220.244 34.2658 223.01 33.4991 225.82 35.3337 226.527 38.3679" id="path4002" stroke="#FFFFFF" stroke-linecap="round" stroke-linejoin="round" fill="none"/><path d="M210.963 41.5117C208.638 40.6388 207.271 37.6356 207.86 34.6912 208.449 31.7468 210.786 29.9009 213.166 30.4989" id="path4004" stroke="#FFFFFF" stroke-linecap="round" stroke-linejoin="round" fill="none"/><path d="M220.539 45.4816C220.182 45.3476 211.075 41.5976 211.075 41.5976" id="path4006" stroke="#FFFFFF" fill="none"/><path d="M213.471 30.5077 222.849 33.8004" id="path4008" stroke="#FFFFFF" fill="none"/><path d="M213.364 43.0173C210.69 44.6446 207.518 43.3743 205.976 40.058 204.433 36.7418 205.005 32.424 207.309 29.9996 209.612 27.5753 212.921 27.8079 215.017 30.5415" id="path4010" stroke="#FFFFFF" stroke-linecap="round" stroke-linejoin="round" fill="none"/><path d="M214.63 50.129C211.872 54 171.111 49.2357 172.961 39.5224 178.42 25.1578 191.086 21.9543 201.498 22.2867L217.029 26.0116" id="path4012" stroke="#FFFFFF" fill="none"/><path d="M196.699 8.08144 202.382 7.45009 224.479 21.971C226.519 24.2661 225.415 30.9641 225.868 35.4818" id="path4014" stroke="#FFFFFF" fill="none"/><path d="M90.8916 273.722C101.534 282.393 104.26 297.532 97.3098 309.37 90.3601 321.209 75.8133 326.208 63.0545 321.142 50.2957 316.076 43.1402 302.46 46.2045 289.078 49.2688 275.697 61.6365 266.552 75.3284 267.543" id="path4016" stroke="#FFFFFF" stroke-linecap="round" stroke-linejoin="round" fill="none"/><path d="M47.9052 307.446C9.45727 310.63 87.3814 358.878 86.1194 320.303" id="path4018" stroke="#FFFFFF" fill="none"/><path d="M63.2167 253.714C52.806 255.118 23.8335 274.335 46.0383 287.912" id="path4020" stroke="#FFFFFF" fill="none"/><path d="M102.342 311.655C116.838 341.307 130.276 252.079 93.0199 270.469" id="path4022" stroke="#FFFFFF" fill="none"/><path d="M97.8441 303.053C98.3624 305.183 97.0595 307.331 94.9309 307.855 92.8024 308.379 90.6508 307.083 90.1202 304.956 89.5896 302.829 90.8801 300.673 93.0056 300.137 95.1311 299.6 97.2901 300.884 97.833 303.008" id="path4024" stroke="#FFFFFF" stroke-linecap="round" stroke-linejoin="round" fill="none"/><path d="M98.2229 293.077C98.7412 295.207 97.4383 297.355 95.3097 297.88 93.1812 298.404 91.0296 297.107 90.499 294.98 89.9684 292.853 91.2589 290.698 93.3844 290.161 95.5099 289.625 97.6689 290.909 98.2118 293.033" id="path4026" stroke="#FFFFFF" stroke-linecap="round" stroke-linejoin="round" fill="none"/><path d="M96.3154 279.686C98.462 279.686 104.018 279.434 104.018 279.434L103.892 284.99C103.892 284.99 108.943 284.484 108.816 285.116 108.69 285.747 108.69 295.091 108.69 295.091L105.533 296.48 110.837 298.5 110.205 302.541 106.67 304.182 107.175 309.991 90.6335 309.233 87.8556 305.193 91.1386 296.227" id="path4030" stroke="#FFFFFF" fill="none"/><path d="M101.585 253.541C119.746 266.016 126.916 289.361 118.888 309.879 110.859 330.398 89.7506 342.678 67.9457 339.515 46.1409 336.353 29.3908 318.582 27.5226 296.628 25.6543 274.674 39.1607 254.328 60.1176 247.527" id="path4032" stroke="#FFFFFF" stroke-linecap="round" stroke-linejoin="round" fill="none"/><path d="M134.522 270.267C146.597 302.573 130.818 338.628 98.893 351.677 66.9679 364.726 30.4513 350.048 16.44 318.533 2.42867 287.018 15.9936 250.073 47.0691 235.113" id="path4034" stroke="#FFFFFF" stroke-linecap="round" stroke-linejoin="round" fill="none"/><path d="M9.84653 257.759 19.8218 255.865" id="path4038" stroke="#FFFFFF" fill="none"/><path d="M3.40681 274.3 12.4982 270.512" id="path4040" stroke="#FFFFFF" fill="none"/><path d="M1.13403 291.725 8.83645 286.296" id="path4044" stroke="#FFFFFF" fill="none"/><path d="M3.91195 312.307 8.20504 302.458" id="path4046" stroke="#FFFFFF" fill="none"/><path d="M10.2253 328.469 13.1295 317.231" id="path4048" stroke="#FFFFFF" fill="none"/><path d="M21.2107 342.359 21.7158 332.636" id="path4050" stroke="#FFFFFF" fill="none"/><path d="M34.5953 354.228 32.4487 344.632" id="path4052" stroke="#FFFFFF" fill="none"/><path d="M53.7882 363.572 47.4747 352.713" id="path4056" stroke="#FFFFFF" fill="none"/><path d="M75.1276 366.981 63.6371 359.153" id="path4060" stroke="#FFFFFF" fill="none"/><path d="M94.8256 363.951 81.8199 359.405" id="path4062" stroke="#FFFFFF" fill="none"/><path d="M112.377 357.006 98.9925 355.112" id="path4064" stroke="#FFFFFF" fill="none"/><path d="M127.529 343.117 115.281 345.263" id="path4066" stroke="#FFFFFF" fill="none"/><path d="M139.02 328.596 128.918 332.257" id="path4070" stroke="#FFFFFF" fill="none"/><path d="M147.354 307.761 136.621 316.6" id="path4074" stroke="#FFFFFF" fill="none"/><path d="M148.237 286.674 141.166 298.796" id="path4076" stroke="#FFFFFF" fill="none"/><path d="M544.691 112.267 545.048 115.66C545.212 118.344 540.481 122.659 538.084 126.196L539.155 134.767C536.927 138.359 531.195 139.763 525.227 141.017" id="path4078" stroke="#FFFFFF" fill="none"/><path d="M532.905 143.696C525.185 144.955 517.999 146.481 516.834 151.017 517.971 158.455 526.014 157.924 533.084 158.517L533.084 142.982 538.977 145.303C539.789 148.997 540.661 152.715 539.155 155.482L533.619 158.696" id="path4080" stroke="#FFFFFF" fill="none"/><path d="M582.369 259.589 522.727 164.767 531.298 157.446" id="path4082" stroke="#FFFFFF" fill="none"/><path d="M483.441 167.089C484.334 167.089 522.548 164.589 522.548 164.589" id="path4084" stroke="#FFFFFF" fill="none"/><path d="M302.727 214.232C303.997 219.902 335.453 221.026 335.405 220.303" id="path4086" stroke="#FFFFFF" fill="none"/><path d="M550.871 97.5616 552.556 100.007" id="path4092" stroke="#FFFFFF" fill="none"/><path d="M555.809 97.4799 557.279 100.029" id="path4094" stroke="#FFFFFF" fill="none"/><path d="M518.391 97.9139 550.871 97.5616" id="path4096" stroke="#FFFFFF" fill="none"/><path d="M555.809 97.4799 567.804 97.2274" id="path4098" stroke="#FFFFFF" fill="none"/><path d="M518.759 97.9139 520.58 100.51" id="path4100" stroke="#FFFFFF" fill="none"/><path d="M513.761 98.4901 514.897 100.541" id="path4102" stroke="#FFFFFF" fill="none"/><path d="M465.767 206.662C495.189 196.95 527.145 203.14 551.602 223.289" id="path4104" stroke="#FFFFFF" stroke-linecap="round" stroke-linejoin="round" fill="none"/><path d="M531.32 241.452C550.886 260.008 556.507 288.942 545.312 313.473 534.117 338.005 508.578 352.719 481.74 350.098 454.902 347.477 432.691 328.101 426.454 301.867" id="path4106" stroke="#FFFFFF" stroke-linecap="round" stroke-linejoin="round" fill="none"/><path d="M418.554 313.653 422.09 303.299" id="path4108" stroke="#FFFFFF" fill="none"/><path d="M428.656 330.825 429.287 319.714" id="path4110" stroke="#FFFFFF" fill="none"/><path d="M439.01 342.189 438.757 333.351" id="path4112" stroke="#FFFFFF" fill="none"/><path d="M451.51 351.786 449.616 341.937" id="path4114" stroke="#FFFFFF" fill="none"/><path d="M466.915 358.604 463.632 350.144" id="path4116" stroke="#FFFFFF" fill="none"/><path d="M479.668 361.256 474.491 353.68" id="path4118" stroke="#FFFFFF" fill="none"/><path d="M495.326 360.877C494.694 360.12 488.255 354.311 488.255 354.311" id="path4120" stroke="#FFFFFF" fill="none"/><path d="M511.236 358.099 502.523 353.301" id="path4122" stroke="#FFFFFF" fill="none"/><path d="M522.474 352.417 515.024 348.882" id="path4124" stroke="#FFFFFF" fill="none"/><path d="M536.237 343.957 525.378 342.821" id="path4126" stroke="#FFFFFF" fill="none"/><path d="M544.697 334.487C544.066 334.487 535.101 334.487 535.101 334.487" id="path4128" stroke="#FFFFFF" fill="none"/><path d="M552.652 322.744 543.561 324.007" id="path4130" stroke="#FFFFFF" fill="none"/><path d="M558.587 309.359 549.369 313.021" id="path4132" stroke="#FFFFFF" fill="none"/><path d="M561.491 295.722 553.157 301.404" id="path4134" stroke="#FFFFFF" fill="none"/><path d="M560.986 278.55 553.536 287.262" id="path4136" stroke="#FFFFFF" fill="none"/><path d="M557.198 263.397C557.198 264.786 553.788 272.994 553.788 272.994" id="path4138" stroke="#FFFFFF" fill="none"/><path d="M550.884 250.266 548.485 259.357" id="path4140" stroke="#FFFFFF" fill="none"/><path d="M543.434 238.396 542.677 248.75" id="path4142" stroke="#FFFFFF" fill="none"/><path d="M551.682 223.878C545.955 222.562 536.838 231.154 521.119 243.16" id="path4144" stroke="#FFFFFF" fill="none"/><path d="M522.291 242.194C542.081 257.306 549.697 283.559 541.067 306.915 532.438 330.271 509.582 345.266 484.722 343.881 459.861 342.495 438.812 325.055 432.831 300.885" id="path4146" stroke="#FFFFFF" stroke-linecap="round" stroke-linejoin="round" fill="none"/><path d="M484.629 237.09C510.81 235.396 533.893 254.118 537.638 280.085 541.384 306.052 524.533 330.534 498.94 336.307 473.347 342.081 447.617 327.205 439.852 302.144" id="path4148" stroke="#FFFFFF" stroke-linecap="round" stroke-linejoin="round" fill="none"/><g id="g4451" stroke="#FFFFFF" transform="matrix(3.77953 0 0 3.77953 3113.26 -31.681)"><path d="M-707.596 62.2037C-706.393 62.2037-702.05 59.4642-702.05 59.4642" id="path4424" stroke-width="0.767292" stroke-linecap="round" fill="none"/><path d="M-707.295 63.6737C-706.093 63.6737-701.75 60.9342-701.75 60.9342" id="path4426" stroke-width="0.767292" stroke-linecap="round" fill="none"/><path d="M-706.961 64.9766C-705.759 64.9766-701.415 62.2371-701.415 62.2371" id="path4428" stroke-width="0.767292" stroke-linecap="round" fill="none"/><path d="M-706.527 66.4132C-705.324 66.4132-700.981 63.6737-700.981 63.6737" id="path4430" stroke-width="0.767292" stroke-linecap="round" fill="none"/><path d="M-706.293 67.6827C-705.09 67.6827-700.747 64.9432-700.747 64.9432" id="path4432" stroke-width="0.767292" stroke-linecap="round" fill="none"/><path d="M-705.959 69.0191C-704.756 69.0191-700.413 66.2796-700.413 66.2796" id="path4434" stroke-width="0.767292" stroke-linecap="round" fill="none"/><path d="M-705.676 70.2249C-704.473 70.2249-700.13 67.4854-700.13 67.4854" id="path4436" stroke-width="0.767292" stroke-linecap="round" fill="none"/><path d="M-705.293 71.3446C-704.09 71.3446-699.747 68.605-699.747 68.605" id="path4438" stroke-width="0.767292" stroke-linecap="round" fill="none"/><path d="M-705.021 72.6155C-703.819 72.6155-699.475 69.876-699.475 69.876" id="path4440" stroke-width="0.767292" stroke-linecap="round" fill="none"/></g><path d="M462.573 305.931C424.125 309.114 502.049 357.363 500.787 318.788" id="path5186" stroke="#FFFFFF" fill="none"/><path d="M516.298 302.056C537.152 334.513 543.19 243.06 509.718 262.277" id="path5188" stroke="#FFFFFF" fill="none"/><path d="M477.317 260.933C490.632 255.593 505.837 261.034 512.742 273.609 519.646 286.184 516.076 301.934 504.425 310.303 492.773 318.672 476.707 317.025 466.996 306.466" id="path5190" stroke="#FFFFFF" stroke-width="2.8" stroke-linecap="round" stroke-linejoin="round" fill="none"/><g id="g5224" stroke="#FFFFFF" stroke-width="0.901692" transform="matrix(3.06979 0.496137 -0.496285 3.06095 2663.22 377.715)"><path d="M-736.003 78.8725C-736.003 78.8725-734.954 84.5685-732.688 88.23-732.004 89.3357-709.08 90.2964-706.262 90.2964" id="path4079" stroke-linecap="round" fill="none"/><path d="M-736.003 78.8725C-736.003 78.8725-717.294 73.8482-713.305 73.8482-713.305 73.8482-710.154 73.9815-707.502 74.3433" id="path4081" stroke-linecap="round" fill="none"/><path d="M-710.974 87.4624C-713.945 83.9511-713.5 78.706-709.98 75.741-706.459 72.7759-701.193 73.2112-698.212 76.7137-695.23 80.2162-695.659 85.4626-699.171 88.4381-702.682 91.4135-707.949 90.9938-710.941 87.5002" id="path4083" stroke-linecap="round" stroke-linejoin="round" fill="none"/><path d="M-689.859 80.037C-689.553 82.6819-689.787 84.7251-690.992 87.2464" id="path4090" stroke-linecap="round" fill="none"/><path d="M-699.27 75.6649C-697.11 76.2361-694.357 76.8175-691.025 78.2696" id="path4092-9" stroke-linecap="round" fill="none"/><path d="M-702.72 90.2399C-699.917 90.2564-695.374 89.37-692.571 88.7414" id="path4094-8" stroke-linecap="round" fill="none"/><path d="M-691.025 78.2696C-690.343 78.6043-689.897 79.2808-689.859 80.037" id="path4096-5" stroke-linecap="round" stroke-linejoin="round" fill="none"/><path d="M-690.992 87.2464C-691.275 87.9496-691.852 88.4952-692.571 88.7414" id="path4098-5" stroke-linecap="round" stroke-linejoin="round" fill="none"/></g><path d="M485.374 259.297C511.494 230.905 460.384 242.916 456.387 254.395" id="path5226" stroke="#FFFFFF" fill="none"/><path d="M317.024 303.45C329.814 286.452 368.307 295.96 394.691 292.982 357.503 285.711 323.208 282.602 293.62 286.732L290.092 273.873 294.512 243.339 393.262 250.839" id="path5228" stroke="#FFFFFF" stroke-width="2.8" stroke-linecap="round" fill="none"/><path d="M297.905 242.982 323.619 205.489 392.966 209.331 387.548 249.767Z" id="path5232" stroke="#FFFFFF" stroke-width="2.8" fill="none"/><path d="M312.077 297.657C312.601 299.808 311.284 301.978 309.134 302.508 306.984 303.037 304.811 301.728 304.275 299.579 303.739 297.43 305.042 295.253 307.189 294.711 309.336 294.169 311.517 295.466 312.066 297.612" id="path5234" stroke="#FFFFFF" stroke-width="2.8" stroke-linecap="round" stroke-linejoin="round" fill="#FFFFFF"/><path d="M317.024 303.45C314.759 307.588 309.929 309.605 305.394 308.305 300.859 307.006 297.829 302.737 298.1 298.027" id="path5236" stroke="#FFFFFF" stroke-width="2.8" stroke-linecap="round" stroke-linejoin="round" fill="none"/><path d="M298.1 298.027C298.523 295.393 294.789 289.366 293.62 286.732" id="path5238" stroke="#FFFFFF" stroke-width="2.8" fill="none"/><path d="M290.092 273.873C314.928 272.914 337.725 275.351 360.597 277.666" id="path5240" stroke="#FFFFFF" stroke-width="2" fill="none"/><path d="M341.656 205.44C353.281 199.948 362.089 201.965 369.688 207.208" id="path5242" stroke="#FFFFFF" stroke-width="4.6" stroke-linecap="round" fill="none"/></svg>